<mxfile host="app.diagrams.net" agent="Mozilla/5.0 (Windows NT 10.0; Win64; x64; rv:130.0) Gecko/20100101 Firefox/130.0" version="24.7.17">
  <diagram name="Page-1" id="Jv_TQmSTfyp_RUovjXyt">
    <mxGraphModel dx="1193" dy="648" grid="1" gridSize="10" guides="1" tooltips="1" connect="1" arrows="1" fold="1" page="1" pageScale="1" pageWidth="850" pageHeight="1100" math="0" shadow="0">
      <root>
        <mxCell id="0" />
        <mxCell id="1" parent="0" />
        <mxCell id="Bxq7dNhiQGgo0WM1oG6--110" value="" style="rounded=0;whiteSpace=wrap;html=1;" vertex="1" parent="1">
          <mxGeometry x="385" y="310" width="20" height="60" as="geometry" />
        </mxCell>
        <mxCell id="Bxq7dNhiQGgo0WM1oG6--5" value="" style="rounded=0;whiteSpace=wrap;html=1;" vertex="1" parent="1">
          <mxGeometry x="170" y="180" width="20" height="260" as="geometry" />
        </mxCell>
        <mxCell id="Bxq7dNhiQGgo0WM1oG6--1" value="System" style="rounded=0;whiteSpace=wrap;html=1;" vertex="1" parent="1">
          <mxGeometry x="110" y="110" width="150" height="30" as="geometry" />
        </mxCell>
        <mxCell id="Bxq7dNhiQGgo0WM1oG6--6" value="" style="endArrow=none;dashed=1;html=1;dashPattern=1 3;strokeWidth=2;rounded=0;entryX=0.5;entryY=1;entryDx=0;entryDy=0;" edge="1" parent="1" source="Bxq7dNhiQGgo0WM1oG6--5" target="Bxq7dNhiQGgo0WM1oG6--1">
          <mxGeometry width="50" height="50" relative="1" as="geometry">
            <mxPoint x="185" y="600" as="sourcePoint" />
            <mxPoint x="450" y="280" as="targetPoint" />
          </mxGeometry>
        </mxCell>
        <mxCell id="Bxq7dNhiQGgo0WM1oG6--7" value="&lt;font style=&quot;font-size: 19px;&quot;&gt;\EXAM-RESULTS&lt;/font&gt;" style="shape=note;whiteSpace=wrap;html=1;backgroundOutline=1;darkOpacity=0.05;" vertex="1" parent="1">
          <mxGeometry x="20" y="10" width="200" height="80" as="geometry" />
        </mxCell>
        <mxCell id="Bxq7dNhiQGgo0WM1oG6--8" value="" style="endArrow=classic;html=1;rounded=0;" edge="1" parent="1">
          <mxGeometry width="50" height="50" relative="1" as="geometry">
            <mxPoint x="40" y="160" as="sourcePoint" />
            <mxPoint x="180" y="160" as="targetPoint" />
          </mxGeometry>
        </mxCell>
        <mxCell id="Bxq7dNhiQGgo0WM1oG6--9" value="Staff input" style="edgeLabel;html=1;align=center;verticalAlign=middle;resizable=0;points=[];" vertex="1" connectable="0" parent="Bxq7dNhiQGgo0WM1oG6--8">
          <mxGeometry x="-0.6118" y="-2" relative="1" as="geometry">
            <mxPoint x="23" y="-12" as="offset" />
          </mxGeometry>
        </mxCell>
        <mxCell id="Bxq7dNhiQGgo0WM1oG6--10" value="" style="endArrow=classic;html=1;rounded=0;" edge="1" parent="1">
          <mxGeometry width="50" height="50" relative="1" as="geometry">
            <mxPoint x="190" y="190" as="sourcePoint" />
            <mxPoint x="180" y="230" as="targetPoint" />
            <Array as="points">
              <mxPoint x="240" y="190" />
              <mxPoint x="240" y="230" />
            </Array>
          </mxGeometry>
        </mxCell>
        <mxCell id="Bxq7dNhiQGgo0WM1oG6--11" value="createResult()" style="edgeLabel;html=1;align=center;verticalAlign=middle;resizable=0;points=[];" vertex="1" connectable="0" parent="Bxq7dNhiQGgo0WM1oG6--10">
          <mxGeometry x="-0.6118" y="-2" relative="1" as="geometry">
            <mxPoint x="21" y="-12" as="offset" />
          </mxGeometry>
        </mxCell>
        <mxCell id="Bxq7dNhiQGgo0WM1oG6--17" value="" style="endArrow=classic;html=1;rounded=0;" edge="1" parent="1">
          <mxGeometry width="50" height="50" relative="1" as="geometry">
            <mxPoint x="190" y="390" as="sourcePoint" />
            <mxPoint x="600" y="390" as="targetPoint" />
          </mxGeometry>
        </mxCell>
        <mxCell id="Bxq7dNhiQGgo0WM1oG6--18" value="displayResults(Type)" style="edgeLabel;html=1;align=center;verticalAlign=middle;resizable=0;points=[];" vertex="1" connectable="0" parent="Bxq7dNhiQGgo0WM1oG6--17">
          <mxGeometry x="-0.6118" y="-2" relative="1" as="geometry">
            <mxPoint x="101" y="-12" as="offset" />
          </mxGeometry>
        </mxCell>
        <mxCell id="Bxq7dNhiQGgo0WM1oG6--26" value="" style="endArrow=none;html=1;rounded=0;dashed=1;dashPattern=8 8;startArrow=classic;startFill=1;endFill=0;" edge="1" parent="1">
          <mxGeometry width="50" height="50" relative="1" as="geometry">
            <mxPoint x="195" y="430" as="sourcePoint" />
            <mxPoint x="605" y="430" as="targetPoint" />
          </mxGeometry>
        </mxCell>
        <mxCell id="Bxq7dNhiQGgo0WM1oG6--28" value="resutls in json" style="edgeLabel;html=1;align=center;verticalAlign=middle;resizable=0;points=[];" vertex="1" connectable="0" parent="Bxq7dNhiQGgo0WM1oG6--26">
          <mxGeometry x="0.2972" y="2" relative="1" as="geometry">
            <mxPoint x="-71" y="-8" as="offset" />
          </mxGeometry>
        </mxCell>
        <mxCell id="Bxq7dNhiQGgo0WM1oG6--67" value="" style="endArrow=none;dashed=1;html=1;dashPattern=1 3;strokeWidth=2;rounded=0;entryX=0.5;entryY=1;entryDx=0;entryDy=0;" edge="1" parent="1" source="Bxq7dNhiQGgo0WM1oG6--137" target="Bxq7dNhiQGgo0WM1oG6--5">
          <mxGeometry width="50" height="50" relative="1" as="geometry">
            <mxPoint x="180" y="850.8333333333334" as="sourcePoint" />
            <mxPoint x="185" y="140" as="targetPoint" />
          </mxGeometry>
        </mxCell>
        <mxCell id="Bxq7dNhiQGgo0WM1oG6--85" value="Results" style="rounded=0;whiteSpace=wrap;html=1;" vertex="1" parent="1">
          <mxGeometry x="540" y="110" width="150" height="30" as="geometry" />
        </mxCell>
        <mxCell id="Bxq7dNhiQGgo0WM1oG6--86" value="" style="endArrow=none;dashed=1;html=1;dashPattern=1 3;strokeWidth=2;rounded=0;entryX=0.5;entryY=1;entryDx=0;entryDy=0;" edge="1" parent="1" source="Bxq7dNhiQGgo0WM1oG6--87" target="Bxq7dNhiQGgo0WM1oG6--85">
          <mxGeometry width="50" height="50" relative="1" as="geometry">
            <mxPoint x="615" y="650" as="sourcePoint" />
            <mxPoint x="610" y="250" as="targetPoint" />
          </mxGeometry>
        </mxCell>
        <mxCell id="Bxq7dNhiQGgo0WM1oG6--88" value="" style="endArrow=none;dashed=1;html=1;dashPattern=1 3;strokeWidth=2;rounded=0;entryX=0.5;entryY=1;entryDx=0;entryDy=0;" edge="1" parent="1" source="Bxq7dNhiQGgo0WM1oG6--135" target="Bxq7dNhiQGgo0WM1oG6--87">
          <mxGeometry width="50" height="50" relative="1" as="geometry">
            <mxPoint x="620" y="810" as="sourcePoint" />
            <mxPoint x="615" y="140" as="targetPoint" />
          </mxGeometry>
        </mxCell>
        <mxCell id="Bxq7dNhiQGgo0WM1oG6--87" value="" style="rounded=0;whiteSpace=wrap;html=1;" vertex="1" parent="1">
          <mxGeometry x="605" y="380" width="20" height="60" as="geometry" />
        </mxCell>
        <mxCell id="Bxq7dNhiQGgo0WM1oG6--89" value="" style="endArrow=classic;html=1;rounded=0;fillColor=#f8cecc;strokeColor=#b85450;" edge="1" parent="1">
          <mxGeometry width="50" height="50" relative="1" as="geometry">
            <mxPoint x="190" y="255" as="sourcePoint" />
            <mxPoint x="180" y="295" as="targetPoint" />
            <Array as="points">
              <mxPoint x="240" y="255" />
              <mxPoint x="240" y="295" />
            </Array>
          </mxGeometry>
        </mxCell>
        <mxCell id="Bxq7dNhiQGgo0WM1oG6--90" value="token_required()" style="edgeLabel;html=1;align=center;verticalAlign=middle;resizable=0;points=[];" vertex="1" connectable="0" parent="Bxq7dNhiQGgo0WM1oG6--89">
          <mxGeometry x="-0.6118" y="-2" relative="1" as="geometry">
            <mxPoint x="21" y="-12" as="offset" />
          </mxGeometry>
        </mxCell>
        <mxCell id="Bxq7dNhiQGgo0WM1oG6--92" value="Permission Manager" style="rounded=0;whiteSpace=wrap;html=1;" vertex="1" parent="1">
          <mxGeometry x="320" y="110" width="150" height="30" as="geometry" />
        </mxCell>
        <mxCell id="Bxq7dNhiQGgo0WM1oG6--93" value="" style="endArrow=none;dashed=1;html=1;dashPattern=1 3;strokeWidth=2;rounded=0;entryX=0.5;entryY=1;entryDx=0;entryDy=0;" edge="1" parent="1" target="Bxq7dNhiQGgo0WM1oG6--92" source="Bxq7dNhiQGgo0WM1oG6--110">
          <mxGeometry width="50" height="50" relative="1" as="geometry">
            <mxPoint x="400" y="600" as="sourcePoint" />
            <mxPoint x="390" y="250" as="targetPoint" />
          </mxGeometry>
        </mxCell>
        <mxCell id="Bxq7dNhiQGgo0WM1oG6--106" value="" style="endArrow=classic;html=1;rounded=0;fillColor=#f8cecc;strokeColor=#b85450;" edge="1" parent="1">
          <mxGeometry width="50" height="50" relative="1" as="geometry">
            <mxPoint x="190" y="330" as="sourcePoint" />
            <mxPoint x="390" y="330" as="targetPoint" />
          </mxGeometry>
        </mxCell>
        <mxCell id="Bxq7dNhiQGgo0WM1oG6--107" value="checkPermissions()" style="edgeLabel;html=1;align=center;verticalAlign=middle;resizable=0;points=[];" vertex="1" connectable="0" parent="Bxq7dNhiQGgo0WM1oG6--106">
          <mxGeometry x="-0.6118" y="-2" relative="1" as="geometry">
            <mxPoint x="53" y="-12" as="offset" />
          </mxGeometry>
        </mxCell>
        <mxCell id="Bxq7dNhiQGgo0WM1oG6--108" value="" style="endArrow=none;html=1;rounded=0;dashed=1;dashPattern=8 8;startArrow=classic;startFill=1;endFill=0;fillColor=#f8cecc;strokeColor=#b85450;" edge="1" parent="1">
          <mxGeometry width="50" height="50" relative="1" as="geometry">
            <mxPoint x="190" y="360" as="sourcePoint" />
            <mxPoint x="390" y="360" as="targetPoint" />
          </mxGeometry>
        </mxCell>
        <mxCell id="Bxq7dNhiQGgo0WM1oG6--109" value="conformation" style="edgeLabel;html=1;align=center;verticalAlign=middle;resizable=0;points=[];" vertex="1" connectable="0" parent="Bxq7dNhiQGgo0WM1oG6--108">
          <mxGeometry x="0.2972" y="2" relative="1" as="geometry">
            <mxPoint x="-33" y="-8" as="offset" />
          </mxGeometry>
        </mxCell>
        <mxCell id="Bxq7dNhiQGgo0WM1oG6--111" value="" style="endArrow=none;dashed=1;html=1;dashPattern=1 3;strokeWidth=2;rounded=0;entryX=0.5;entryY=1;entryDx=0;entryDy=0;exitX=0.5;exitY=1;exitDx=0;exitDy=0;" edge="1" parent="1" source="Bxq7dNhiQGgo0WM1oG6--110" target="Bxq7dNhiQGgo0WM1oG6--110">
          <mxGeometry width="50" height="50" relative="1" as="geometry">
            <mxPoint x="395" y="470" as="sourcePoint" />
            <mxPoint x="395" y="140" as="targetPoint" />
          </mxGeometry>
        </mxCell>
        <mxCell id="Bxq7dNhiQGgo0WM1oG6--112" value="" style="endArrow=classic;html=1;rounded=0;" edge="1" parent="1">
          <mxGeometry width="50" height="50" relative="1" as="geometry">
            <mxPoint x="40" y="469.99999999999994" as="sourcePoint" />
            <mxPoint x="180" y="469.99999999999994" as="targetPoint" />
          </mxGeometry>
        </mxCell>
        <mxCell id="Bxq7dNhiQGgo0WM1oG6--113" value="delete" style="edgeLabel;html=1;align=center;verticalAlign=middle;resizable=0;points=[];" vertex="1" connectable="0" parent="Bxq7dNhiQGgo0WM1oG6--112">
          <mxGeometry x="-0.6118" y="-2" relative="1" as="geometry">
            <mxPoint x="23" y="-12" as="offset" />
          </mxGeometry>
        </mxCell>
        <mxCell id="Bxq7dNhiQGgo0WM1oG6--114" value="" style="endArrow=classic;html=1;rounded=0;" edge="1" parent="1">
          <mxGeometry width="50" height="50" relative="1" as="geometry">
            <mxPoint x="40" y="570" as="sourcePoint" />
            <mxPoint x="180" y="570" as="targetPoint" />
          </mxGeometry>
        </mxCell>
        <mxCell id="Bxq7dNhiQGgo0WM1oG6--115" value="Create new" style="edgeLabel;html=1;align=center;verticalAlign=middle;resizable=0;points=[];" vertex="1" connectable="0" parent="Bxq7dNhiQGgo0WM1oG6--114">
          <mxGeometry x="-0.6118" y="-2" relative="1" as="geometry">
            <mxPoint x="23" y="-12" as="offset" />
          </mxGeometry>
        </mxCell>
        <mxCell id="Bxq7dNhiQGgo0WM1oG6--116" value="" style="endArrow=classic;html=1;rounded=0;" edge="1" parent="1">
          <mxGeometry width="50" height="50" relative="1" as="geometry">
            <mxPoint x="190" y="499.99999999999994" as="sourcePoint" />
            <mxPoint x="600" y="499.99999999999994" as="targetPoint" />
          </mxGeometry>
        </mxCell>
        <mxCell id="Bxq7dNhiQGgo0WM1oG6--117" value="removeResult()" style="edgeLabel;html=1;align=center;verticalAlign=middle;resizable=0;points=[];" vertex="1" connectable="0" parent="Bxq7dNhiQGgo0WM1oG6--116">
          <mxGeometry x="-0.6118" y="-2" relative="1" as="geometry">
            <mxPoint x="101" y="-12" as="offset" />
          </mxGeometry>
        </mxCell>
        <mxCell id="Bxq7dNhiQGgo0WM1oG6--118" value="" style="endArrow=none;html=1;rounded=0;dashed=1;dashPattern=8 8;startArrow=classic;startFill=1;endFill=0;" edge="1" parent="1">
          <mxGeometry width="50" height="50" relative="1" as="geometry">
            <mxPoint x="195" y="540" as="sourcePoint" />
            <mxPoint x="605" y="540" as="targetPoint" />
          </mxGeometry>
        </mxCell>
        <mxCell id="Bxq7dNhiQGgo0WM1oG6--119" value="confirmation" style="edgeLabel;html=1;align=center;verticalAlign=middle;resizable=0;points=[];" vertex="1" connectable="0" parent="Bxq7dNhiQGgo0WM1oG6--118">
          <mxGeometry x="0.2972" y="2" relative="1" as="geometry">
            <mxPoint x="-71" y="-8" as="offset" />
          </mxGeometry>
        </mxCell>
        <mxCell id="Bxq7dNhiQGgo0WM1oG6--120" value="" style="endArrow=classic;html=1;rounded=0;" edge="1" parent="1">
          <mxGeometry width="50" height="50" relative="1" as="geometry">
            <mxPoint x="190" y="600" as="sourcePoint" />
            <mxPoint x="600" y="600" as="targetPoint" />
          </mxGeometry>
        </mxCell>
        <mxCell id="Bxq7dNhiQGgo0WM1oG6--121" value="newResult()" style="edgeLabel;html=1;align=center;verticalAlign=middle;resizable=0;points=[];" vertex="1" connectable="0" parent="Bxq7dNhiQGgo0WM1oG6--120">
          <mxGeometry x="-0.6118" y="-2" relative="1" as="geometry">
            <mxPoint x="101" y="-12" as="offset" />
          </mxGeometry>
        </mxCell>
        <mxCell id="Bxq7dNhiQGgo0WM1oG6--122" value="" style="endArrow=none;html=1;rounded=0;dashed=1;dashPattern=8 8;startArrow=classic;startFill=1;endFill=0;" edge="1" parent="1">
          <mxGeometry width="50" height="50" relative="1" as="geometry">
            <mxPoint x="190" y="650" as="sourcePoint" />
            <mxPoint x="600" y="650" as="targetPoint" />
          </mxGeometry>
        </mxCell>
        <mxCell id="Bxq7dNhiQGgo0WM1oG6--123" value="confirmation" style="edgeLabel;html=1;align=center;verticalAlign=middle;resizable=0;points=[];" vertex="1" connectable="0" parent="Bxq7dNhiQGgo0WM1oG6--122">
          <mxGeometry x="0.2972" y="2" relative="1" as="geometry">
            <mxPoint x="-71" y="-8" as="offset" />
          </mxGeometry>
        </mxCell>
        <mxCell id="Bxq7dNhiQGgo0WM1oG6--134" value="" style="rounded=0;whiteSpace=wrap;html=1;" vertex="1" parent="1">
          <mxGeometry x="605" y="480" width="20" height="60" as="geometry" />
        </mxCell>
        <mxCell id="Bxq7dNhiQGgo0WM1oG6--136" value="" style="endArrow=none;dashed=1;html=1;dashPattern=1 3;strokeWidth=2;rounded=0;entryX=0.5;entryY=1;entryDx=0;entryDy=0;" edge="1" parent="1" source="Bxq7dNhiQGgo0WM1oG6--162" target="Bxq7dNhiQGgo0WM1oG6--135">
          <mxGeometry width="50" height="50" relative="1" as="geometry">
            <mxPoint x="620" y="810" as="sourcePoint" />
            <mxPoint x="615" y="440" as="targetPoint" />
          </mxGeometry>
        </mxCell>
        <mxCell id="Bxq7dNhiQGgo0WM1oG6--135" value="" style="rounded=0;whiteSpace=wrap;html=1;" vertex="1" parent="1">
          <mxGeometry x="605" y="590" width="20" height="60" as="geometry" />
        </mxCell>
        <mxCell id="Bxq7dNhiQGgo0WM1oG6--138" value="" style="endArrow=none;dashed=1;html=1;dashPattern=1 3;strokeWidth=2;rounded=0;entryX=0.5;entryY=1;entryDx=0;entryDy=0;" edge="1" parent="1" source="Bxq7dNhiQGgo0WM1oG6--139" target="Bxq7dNhiQGgo0WM1oG6--137">
          <mxGeometry width="50" height="50" relative="1" as="geometry">
            <mxPoint x="180" y="850.8333333333334" as="sourcePoint" />
            <mxPoint x="180" y="440" as="targetPoint" />
          </mxGeometry>
        </mxCell>
        <mxCell id="Bxq7dNhiQGgo0WM1oG6--137" value="" style="rounded=0;whiteSpace=wrap;html=1;" vertex="1" parent="1">
          <mxGeometry x="170" y="490" width="20" height="60" as="geometry" />
        </mxCell>
        <mxCell id="Bxq7dNhiQGgo0WM1oG6--140" value="" style="endArrow=none;dashed=1;html=1;dashPattern=1 3;strokeWidth=2;rounded=0;entryX=0.5;entryY=1;entryDx=0;entryDy=0;" edge="1" parent="1" source="Bxq7dNhiQGgo0WM1oG6--148" target="Bxq7dNhiQGgo0WM1oG6--139">
          <mxGeometry width="50" height="50" relative="1" as="geometry">
            <mxPoint x="180" y="850.8333333333334" as="sourcePoint" />
            <mxPoint x="180" y="550" as="targetPoint" />
          </mxGeometry>
        </mxCell>
        <mxCell id="Bxq7dNhiQGgo0WM1oG6--139" value="" style="rounded=0;whiteSpace=wrap;html=1;" vertex="1" parent="1">
          <mxGeometry x="170" y="600" width="20" height="60" as="geometry" />
        </mxCell>
        <mxCell id="Bxq7dNhiQGgo0WM1oG6--146" value="" style="endArrow=classic;html=1;rounded=0;" edge="1" parent="1">
          <mxGeometry width="50" height="50" relative="1" as="geometry">
            <mxPoint x="40" y="690" as="sourcePoint" />
            <mxPoint x="180" y="690" as="targetPoint" />
          </mxGeometry>
        </mxCell>
        <mxCell id="Bxq7dNhiQGgo0WM1oG6--147" value="Edit" style="edgeLabel;html=1;align=center;verticalAlign=middle;resizable=0;points=[];" vertex="1" connectable="0" parent="Bxq7dNhiQGgo0WM1oG6--146">
          <mxGeometry x="-0.6118" y="-2" relative="1" as="geometry">
            <mxPoint x="23" y="-12" as="offset" />
          </mxGeometry>
        </mxCell>
        <mxCell id="Bxq7dNhiQGgo0WM1oG6--149" value="" style="endArrow=none;dashed=1;html=1;dashPattern=1 3;strokeWidth=2;rounded=0;entryX=0.5;entryY=1;entryDx=0;entryDy=0;" edge="1" parent="1" target="Bxq7dNhiQGgo0WM1oG6--148">
          <mxGeometry width="50" height="50" relative="1" as="geometry">
            <mxPoint x="180" y="850.8333333333334" as="sourcePoint" />
            <mxPoint x="180" y="660" as="targetPoint" />
          </mxGeometry>
        </mxCell>
        <mxCell id="Bxq7dNhiQGgo0WM1oG6--148" value="" style="rounded=0;whiteSpace=wrap;html=1;" vertex="1" parent="1">
          <mxGeometry x="170" y="710" width="20" height="60" as="geometry" />
        </mxCell>
        <mxCell id="Bxq7dNhiQGgo0WM1oG6--150" value="" style="endArrow=classic;html=1;rounded=0;" edge="1" parent="1">
          <mxGeometry width="50" height="50" relative="1" as="geometry">
            <mxPoint x="190" y="710" as="sourcePoint" />
            <mxPoint x="600" y="710" as="targetPoint" />
          </mxGeometry>
        </mxCell>
        <mxCell id="Bxq7dNhiQGgo0WM1oG6--151" value="modifyResult()" style="edgeLabel;html=1;align=center;verticalAlign=middle;resizable=0;points=[];" vertex="1" connectable="0" parent="Bxq7dNhiQGgo0WM1oG6--150">
          <mxGeometry x="-0.6118" y="-2" relative="1" as="geometry">
            <mxPoint x="101" y="-12" as="offset" />
          </mxGeometry>
        </mxCell>
        <mxCell id="Bxq7dNhiQGgo0WM1oG6--153" value="" style="endArrow=none;html=1;rounded=0;dashed=1;dashPattern=8 8;startArrow=classic;startFill=1;endFill=0;" edge="1" parent="1">
          <mxGeometry width="50" height="50" relative="1" as="geometry">
            <mxPoint x="190" y="750" as="sourcePoint" />
            <mxPoint x="600" y="750" as="targetPoint" />
          </mxGeometry>
        </mxCell>
        <mxCell id="Bxq7dNhiQGgo0WM1oG6--154" value="confirmation" style="edgeLabel;html=1;align=center;verticalAlign=middle;resizable=0;points=[];" vertex="1" connectable="0" parent="Bxq7dNhiQGgo0WM1oG6--153">
          <mxGeometry x="0.2972" y="2" relative="1" as="geometry">
            <mxPoint x="-71" y="-8" as="offset" />
          </mxGeometry>
        </mxCell>
        <mxCell id="Bxq7dNhiQGgo0WM1oG6--155" value="" style="endArrow=classic;html=1;rounded=0;" edge="1" parent="1">
          <mxGeometry width="50" height="50" relative="1" as="geometry">
            <mxPoint x="40" y="810" as="sourcePoint" />
            <mxPoint x="180" y="810" as="targetPoint" />
          </mxGeometry>
        </mxCell>
        <mxCell id="Bxq7dNhiQGgo0WM1oG6--156" value="Search" style="edgeLabel;html=1;align=center;verticalAlign=middle;resizable=0;points=[];" vertex="1" connectable="0" parent="Bxq7dNhiQGgo0WM1oG6--155">
          <mxGeometry x="-0.6118" y="-2" relative="1" as="geometry">
            <mxPoint x="23" y="-12" as="offset" />
          </mxGeometry>
        </mxCell>
        <mxCell id="Bxq7dNhiQGgo0WM1oG6--157" value="" style="endArrow=classic;html=1;rounded=0;" edge="1" parent="1">
          <mxGeometry width="50" height="50" relative="1" as="geometry">
            <mxPoint x="190" y="830" as="sourcePoint" />
            <mxPoint x="610" y="830" as="targetPoint" />
          </mxGeometry>
        </mxCell>
        <mxCell id="Bxq7dNhiQGgo0WM1oG6--158" value="displayResultsWithFilters(Type)" style="edgeLabel;html=1;align=center;verticalAlign=middle;resizable=0;points=[];" vertex="1" connectable="0" parent="Bxq7dNhiQGgo0WM1oG6--157">
          <mxGeometry x="-0.6118" y="-2" relative="1" as="geometry">
            <mxPoint x="101" y="-12" as="offset" />
          </mxGeometry>
        </mxCell>
        <mxCell id="Bxq7dNhiQGgo0WM1oG6--160" value="" style="endArrow=none;html=1;rounded=0;dashed=1;dashPattern=8 8;startArrow=classic;startFill=1;endFill=0;" edge="1" parent="1">
          <mxGeometry width="50" height="50" relative="1" as="geometry">
            <mxPoint x="190" y="860" as="sourcePoint" />
            <mxPoint x="600" y="860" as="targetPoint" />
          </mxGeometry>
        </mxCell>
        <mxCell id="Bxq7dNhiQGgo0WM1oG6--161" value="confirmation" style="edgeLabel;html=1;align=center;verticalAlign=middle;resizable=0;points=[];" vertex="1" connectable="0" parent="Bxq7dNhiQGgo0WM1oG6--160">
          <mxGeometry x="0.2972" y="2" relative="1" as="geometry">
            <mxPoint x="-71" y="-8" as="offset" />
          </mxGeometry>
        </mxCell>
        <mxCell id="Bxq7dNhiQGgo0WM1oG6--165" value="" style="endArrow=none;dashed=1;html=1;dashPattern=1 3;strokeWidth=2;rounded=0;entryX=0.5;entryY=1;entryDx=0;entryDy=0;" edge="1" parent="1" target="Bxq7dNhiQGgo0WM1oG6--162">
          <mxGeometry width="50" height="50" relative="1" as="geometry">
            <mxPoint x="620" y="810" as="sourcePoint" />
            <mxPoint x="615" y="650" as="targetPoint" />
          </mxGeometry>
        </mxCell>
        <mxCell id="Bxq7dNhiQGgo0WM1oG6--162" value="" style="rounded=0;whiteSpace=wrap;html=1;" vertex="1" parent="1">
          <mxGeometry x="605" y="700" width="20" height="60" as="geometry" />
        </mxCell>
        <mxCell id="Bxq7dNhiQGgo0WM1oG6--166" value="" style="rounded=0;whiteSpace=wrap;html=1;" vertex="1" parent="1">
          <mxGeometry x="620" y="810" width="20" height="60" as="geometry" />
        </mxCell>
        <mxCell id="Bxq7dNhiQGgo0WM1oG6--167" value="" style="rounded=0;whiteSpace=wrap;html=1;" vertex="1" parent="1">
          <mxGeometry x="170" y="820" width="20" height="60" as="geometry" />
        </mxCell>
      </root>
    </mxGraphModel>
  </diagram>
</mxfile>
